<mxfile host="app.diagrams.net" agent="Mozilla/5.0 (Windows NT 10.0; Win64; x64) AppleWebKit/537.36 (KHTML, like Gecko) Chrome/131.0.0.0 Safari/537.36" version="26.0.3">
  <diagram name="Page-1" id="eRn_LyaXD7JEDhkty-Tk">
    <mxGraphModel dx="794" dy="412" grid="1" gridSize="10" guides="1" tooltips="1" connect="1" arrows="1" fold="1" page="1" pageScale="1" pageWidth="2300" pageHeight="2300" math="0" shadow="0">
      <root>
        <mxCell id="0" />
        <mxCell id="1" parent="0" />
        <mxCell id="rknyvr7Q_bBwkxeCkK-Z-1" value="" style="rounded=1;whiteSpace=wrap;html=1;" vertex="1" parent="1">
          <mxGeometry x="380" y="60" width="360" height="250" as="geometry" />
        </mxCell>
        <mxCell id="rknyvr7Q_bBwkxeCkK-Z-3" value="client" style="rounded=1;whiteSpace=wrap;html=1;" vertex="1" parent="1">
          <mxGeometry x="30" y="190" width="150" height="110" as="geometry" />
        </mxCell>
        <mxCell id="rknyvr7Q_bBwkxeCkK-Z-4" style="edgeStyle=orthogonalEdgeStyle;rounded=0;orthogonalLoop=1;jettySize=auto;html=1;entryX=0.061;entryY=0.633;entryDx=0;entryDy=0;entryPerimeter=0;" edge="1" parent="1" source="rknyvr7Q_bBwkxeCkK-Z-3" target="rknyvr7Q_bBwkxeCkK-Z-11">
          <mxGeometry relative="1" as="geometry" />
        </mxCell>
        <mxCell id="rknyvr7Q_bBwkxeCkK-Z-5" value="" style="shape=cylinder3;whiteSpace=wrap;html=1;boundedLbl=1;backgroundOutline=1;size=15;rotation=90;" vertex="1" parent="1">
          <mxGeometry x="1010" y="180" width="60" height="80" as="geometry" />
        </mxCell>
        <mxCell id="rknyvr7Q_bBwkxeCkK-Z-7" value="kafka view tream" style="text;html=1;align=center;verticalAlign=middle;resizable=0;points=[];autosize=1;strokeColor=none;fillColor=none;" vertex="1" parent="1">
          <mxGeometry x="965" y="138" width="110" height="30" as="geometry" />
        </mxCell>
        <mxCell id="rknyvr7Q_bBwkxeCkK-Z-8" value="&lt;b&gt;&lt;font style=&quot;font-size: 21px;&quot;&gt;Top K service all time&lt;/font&gt;&lt;/b&gt;" style="text;html=1;align=center;verticalAlign=middle;resizable=0;points=[];autosize=1;strokeColor=none;fillColor=none;" vertex="1" parent="1">
          <mxGeometry x="440" y="10" width="240" height="40" as="geometry" />
        </mxCell>
        <mxCell id="rknyvr7Q_bBwkxeCkK-Z-10" value="Counts" style="rounded=1;whiteSpace=wrap;html=1;" vertex="1" parent="1">
          <mxGeometry x="420" y="90" width="120" height="60" as="geometry" />
        </mxCell>
        <mxCell id="rknyvr7Q_bBwkxeCkK-Z-11" value="heapify for sorting anf for top k" style="rounded=1;whiteSpace=wrap;html=1;" vertex="1" parent="1">
          <mxGeometry x="420" y="210" width="120" height="60" as="geometry" />
        </mxCell>
        <mxCell id="rknyvr7Q_bBwkxeCkK-Z-12" value="Views" style="rhombus;whiteSpace=wrap;html=1;" vertex="1" parent="1">
          <mxGeometry x="630" y="168" width="80" height="80" as="geometry" />
        </mxCell>
        <mxCell id="rknyvr7Q_bBwkxeCkK-Z-13" style="edgeStyle=orthogonalEdgeStyle;rounded=0;orthogonalLoop=1;jettySize=auto;html=1;entryX=1.025;entryY=0.588;entryDx=0;entryDy=0;entryPerimeter=0;" edge="1" parent="1" source="rknyvr7Q_bBwkxeCkK-Z-5" target="rknyvr7Q_bBwkxeCkK-Z-12">
          <mxGeometry relative="1" as="geometry" />
        </mxCell>
        <mxCell id="rknyvr7Q_bBwkxeCkK-Z-15" value="" style="endArrow=classic;html=1;rounded=0;exitX=0;exitY=0.5;exitDx=0;exitDy=0;entryX=1;entryY=1;entryDx=0;entryDy=0;" edge="1" parent="1" source="rknyvr7Q_bBwkxeCkK-Z-12" target="rknyvr7Q_bBwkxeCkK-Z-10">
          <mxGeometry width="50" height="50" relative="1" as="geometry">
            <mxPoint x="720" y="240" as="sourcePoint" />
            <mxPoint x="770" y="190" as="targetPoint" />
          </mxGeometry>
        </mxCell>
        <mxCell id="rknyvr7Q_bBwkxeCkK-Z-17" value="" style="endArrow=classic;html=1;rounded=0;entryX=1;entryY=0.5;entryDx=0;entryDy=0;exitX=0;exitY=0.5;exitDx=0;exitDy=0;" edge="1" parent="1" source="rknyvr7Q_bBwkxeCkK-Z-12" target="rknyvr7Q_bBwkxeCkK-Z-11">
          <mxGeometry width="50" height="50" relative="1" as="geometry">
            <mxPoint x="580" y="260" as="sourcePoint" />
            <mxPoint x="630" y="210" as="targetPoint" />
          </mxGeometry>
        </mxCell>
      </root>
    </mxGraphModel>
  </diagram>
</mxfile>
